<svg xmlns="http://www.w3.org/2000/svg" 
    xmlns:xlink="http://www.w3.org/1999/xlink" style="isolation:isolate" viewBox="0 0 3200 1800" width="3200" height="1800">
    <rect id="background" x="0" y="0" width="3200" height="1800" transform="matrix(1,0,0,1,0,0)" fill="%%BACKGROUND%%"/>
    <path id="obj0" d=" M 1100 900 C 1100 624.042 1324.042 400 1600 400 C 1875.958 400 2100 624.042 2100 900 C 2100 1175.958 1875.958 1400 1600 1400 C 1324.042 1400 1100 1175.958 1100 900 Z " fill="none" vector-effect="non-scaling-stroke" stroke-width="20" stroke-opacity="10000" stroke-linejoin="miter" stroke-linecap="square" stroke-miterlimit="3"/>
    <path id="obj1" d=" M 1150 900 C 1150 651.638 1351.638 450 1600 450 C 1848.362 450 2050 651.638 2050 900 C 2050 1148.362 1848.362 1350 1600 1350 C 1351.638 1350 1150 1148.362 1150 900 Z " fill="none" vector-effect="non-scaling-stroke" stroke-width="20" stroke-opacity="10000" stroke-linejoin="miter" stroke-linecap="square" stroke-miterlimit="3"/>
    <path id="obj2" d=" M 1200 900 C 1200 679.234 1379.234 500 1600 500 C 1820.766 500 2000 679.234 2000 900 C 2000 1120.766 1820.766 1300 1600 1300 C 1379.234 1300 1200 1120.766 1200 900 Z " fill="none" vector-effect="non-scaling-stroke" stroke-width="20" stroke-opacity="10000" stroke-linejoin="miter" stroke-linecap="square" stroke-miterlimit="3"/>
    <path id="obj3" d=" M 1250 900 C 1250 706.83 1406.83 550 1600 550 C 1793.17 550 1950 706.83 1950 900 C 1950 1093.17 1793.17 1250 1600 1250 C 1406.83 1250 1250 1093.17 1250 900 Z " fill="none" vector-effect="non-scaling-stroke" stroke-width="20" stroke-opacity="10000" stroke-linejoin="miter" stroke-linecap="square" stroke-miterlimit="3"/>
    <path id="obj4" d=" M 1300 900 C 1300 1065.575 1434.425 1200 1600 1200 C 1765.575 1200 1900 1065.575 1900 900 C 1900 734.425 1765.575 600 1600 600 C 1434.425 600 1300 734.425 1300 900 Z " fill="none" vector-effect="non-scaling-stroke" stroke-width="20" stroke-opacity="10000" stroke-linejoin="miter" stroke-linecap="square" stroke-miterlimit="3"/>
    <path id="obj5" d=" M 1350 900 C 1350 758.021 1462.021 646 1600 646 C 1737.979 646 1850 758.021 1850 896 C 1850 1033.979 1737.979 1146 1600 1146 C 1462.021 1146 1350 1033.979 1350 896 Z " fill="none" vector-effect="non-scaling-stroke" stroke-width="20" stroke-opacity="10000" stroke-linejoin="miter" stroke-linecap="square" stroke-miterlimit="3"/>
    <path id="obj6" d=" M 1400 900 C 1400 791.617 1489.617 702 1600 702 C 1710.383 702 1800 791.617 1800 902 C 1800 1012.383 1710.383 1102 1600 1102 C 1489.617 1102 1400 1012.383 1400 902 Z " fill="none" vector-effect="non-scaling-stroke" stroke-width="20" stroke-opacity="10000" stroke-linejoin="miter" stroke-linecap="square" stroke-miterlimit="3"/>
    <path id="obj7" d=" M 1450 900 C 1450 984.787 1517.213 1052 1600 1052 C 1682.787 1052 1750 984.787 1750 902 C 1750 819.213 1682.787 752 1600 752 C 1517.213 752 1450 819.213 1450 902 Z " fill="none" vector-effect="non-scaling-stroke" stroke-width="20" stroke-opacity="10000" stroke-linejoin="miter" stroke-linecap="square" stroke-miterlimit="3"/>
</svg>