<svg xmlns="http://www.w3.org/2000/svg" 
    xmlns:xlink="http://www.w3.org/1999/xlink" style="isolation:isolate" viewBox="0 0 3200 1800" width="3200" height="1800">
    <rect id="background" x="0" y="0" width="3200" height="1800" transform="matrix(1,0,0,1,0,0)" />
    <path id="obj0" d=" M 1493.582 348.474 C 1493.582 289.74 1541.266 242.056 1600 242.056 C 1658.734 242.056 1706.418 289.74 1706.418 348.474 C 1706.418 407.208 1658.734 454.892 1600 454.892 C 1541.266 454.892 1493.582 407.208 1493.582 348.474 Z " />
    <path id="obj7" d=" M 1914.739 434.763 C 1956.27 393.232 2023.706 393.232 2065.237 434.763 C 2106.768 476.294 2106.768 543.73 2065.237 585.261 C 2023.706 626.792 1956.27 626.792 1914.739 585.261 C 1873.208 543.73 1873.208 476.294 1914.739 434.763 Z " />
    <path id="obj6" d=" M 2151.526 793.582 C 2210.26 793.582 2257.944 841.266 2257.944 900 C 2257.944 958.734 2210.26 1006.418 2151.526 1006.418 C 2092.792 1006.418 2045.108 958.734 2045.108 900 C 2045.108 841.266 2092.792 793.582 2151.526 793.582 Z " />
    <path id="obj5" d=" M 2065.237 1214.739 C 2106.768 1256.27 2106.768 1323.706 2065.237 1365.237 C 2023.706 1406.768 1956.27 1406.768 1914.739 1365.237 C 1873.208 1323.706 1873.208 1256.27 1914.739 1214.739 C 1956.27 1173.208 2023.706 1173.208 2065.237 1214.739 Z " />
    <path id="obj4" d=" M 1493.582 1451.526 C 1493.582 1392.792 1541.266 1345.108 1600 1345.108 C 1658.734 1345.108 1706.418 1392.792 1706.418 1451.526 C 1706.418 1510.26 1658.734 1557.944 1600 1557.944 C 1541.266 1557.944 1493.582 1510.26 1493.582 1451.526 Z " />
    <path id="obj3" d=" M 1134.763 1214.739 C 1176.294 1173.208 1243.73 1173.208 1285.261 1214.739 C 1326.792 1256.27 1326.792 1323.706 1285.261 1365.237 C 1243.73 1406.768 1176.294 1406.768 1134.763 1365.237 C 1093.232 1323.706 1093.232 1256.27 1134.763 1214.739 Z " />
    <path id="obj2" d=" M 1048.474 793.582 C 1107.208 793.582 1154.892 841.266 1154.892 900 C 1154.892 958.734 1107.208 1006.418 1048.474 1006.418 C 989.74 1006.418 942.056 958.734 942.056 900 C 942.056 841.266 989.74 793.582 1048.474 793.582 Z " />
    <path id="obj1" d=" M 1285.261 434.763 C 1326.792 476.294 1326.792 543.73 1285.261 585.261 C 1243.73 626.792 1176.294 626.792 1134.763 585.261 C 1093.232 543.73 1093.232 476.294 1134.763 434.763 C 1176.294 393.232 1243.73 393.232 1285.261 434.763 Z " />
</svg>