<svg xmlns="http://www.w3.org/2000/svg" 
    xmlns:xlink="http://www.w3.org/1999/xlink" style="isolation:isolate" viewBox="0 0 3200 1800" width="3200" height="1800">
    <rect id="background" x="0" y="0" width="3200" height="1800" transform="matrix(1,0,0,1,0,0)"/>
    <path id="obj0" d="M 1600.739 753.404 L 1600.739 753.404 C 1567.126 753.404 1539.837 726.115 1539.837 692.502 L 1539.837 361.198 C 1539.837 327.586 1567.126 300.297 1600.739 300.297 L 1600.739 300.297 C 1634.351 300.297 1661.64 327.586 1661.64 361.198 L 1661.64 692.502 C 1661.64 726.115 1634.351 753.404 1600.739 753.404 Z"/>
    <path id="obj1" d="M 1704.092 796.468 L 1704.092 796.468 C 1680.324 772.7 1680.324 734.107 1704.092 710.34 L 1938.359 476.073 C 1962.127 452.305 2000.719 452.305 2024.487 476.073 L 2024.487 476.073 C 2048.254 499.84 2048.254 538.433 2024.487 562.2 L 1790.22 796.468 C 1766.452 820.235 1727.86 820.235 1704.092 796.468 Z" />
    <path id="obj2" d="M 1746.29 900.433 L 1746.29 900.433 C 1746.29 866.82 1773.579 839.531 1807.192 839.531 L 2138.495 839.531 C 2172.108 839.531 2199.397 866.82 2199.397 900.433 L 2199.397 900.433 C 2199.397 934.045 2172.108 961.334 2138.495 961.334 L 1807.192 961.334 C 1773.579 961.334 1746.29 934.045 1746.29 900.433 Z" />
    <path id="obj3" d="M 1704.092 1004.398 L 1704.092 1004.398 C 1727.86 980.63 1766.452 980.63 1790.22 1004.398 L 2024.487 1238.665 C 2048.254 1262.433 2048.254 1301.025 2024.487 1324.793 L 2024.487 1324.793 C 2000.719 1348.56 1962.127 1348.56 1938.359 1324.793 L 1704.092 1090.526 C 1680.324 1066.758 1680.324 1028.166 1704.092 1004.398 Z" />
    <path id="obj4" d="M 1600.127 1046.596 L 1600.127 1046.596 C 1633.739 1046.596 1661.028 1073.885 1661.028 1107.498 L 1661.028 1438.801 C 1661.028 1472.414 1633.739 1499.703 1600.127 1499.703 L 1600.127 1499.703 C 1566.514 1499.703 1539.225 1472.414 1539.225 1438.801 L 1539.225 1107.498 C 1539.225 1073.885 1566.514 1046.596 1600.127 1046.596 Z" />
    <path id="obj5" d="M 1496.161 1004.398 L 1496.161 1004.398 C 1519.929 1028.166 1519.929 1066.758 1496.161 1090.526 L 1261.894 1324.793 C 1238.127 1348.56 1199.534 1348.56 1175.767 1324.793 L 1175.767 1324.793 C 1151.999 1301.025 1151.999 1262.433 1175.767 1238.665 L 1410.034 1004.398 C 1433.801 980.63 1472.394 980.63 1496.161 1004.398 Z" />
    <path id="obj6" d="M 1453.71 900.433 L 1453.71 900.433 C 1453.71 934.045 1426.421 961.334 1392.808 961.334 L 1061.504 961.334 C 1027.892 961.334 1000.603 934.045 1000.603 900.433 L 1000.603 900.433 C 1000.603 866.82 1027.892 839.531 1061.504 839.531 L 1392.808 839.531 C 1426.421 839.531 1453.71 866.82 1453.71 900.433 Z" />
    <path id="obj7" d="M 1497.386 799.516 L 1497.386 799.516 C 1473.618 823.283 1435.026 823.283 1411.258 799.516 L 1176.991 565.248 C 1153.223 541.481 1153.223 502.888 1176.991 479.121 L 1176.991 479.121 C 1200.758 455.353 1239.351 455.353 1263.118 479.121 L 1497.386 713.388 C 1521.153 737.156 1521.153 775.748 1497.386 799.516 Z"/>
</svg>
