<svg xmlns="http://www.w3.org/2000/svg" 
  xmlns:xlink="http://www.w3.org/1999/xlink" style="isolation:isolate" viewBox="0 0 3200 1800" width="3200" height="1800">
  <rect id="background" x="0" y="0" width="3200" height="1800" transform="matrix(1,0,0,1,0,0)"/>
  <path id="obj0" d="m 1760.9355,366.65336 v 0 c 23.768,23.76799 23.768,62.36 0,86.128 l -234.267,234.26702 c -23.767,23.767 -62.36,23.767 -86.127,0 v 0 c -23.768,-23.768 -23.768,-62.36002 0,-86.12802 l 234.267,-234.26699 c 23.767,-23.76801 62.36,-23.76801 86.127,-10e-6 z" />
  <path id="obj1" d="m 2090.8426,636.27063 v 0 c 0,33.612 -27.289,60.901 -60.902,60.901 h -331.304 c -33.612,0 -60.901,-27.289 -60.901,-60.901 v 0 c 0,-33.613 27.289,-60.902 60.901,-60.902 h 331.304 c 33.613,0 60.902,27.289 60.902,60.902 z" />
  <path id="obj2" d="m 2133.0414,1060.6304 v 0 c -23.768,23.767 -62.36,23.767 -86.128,0 l -234.267,-234.26801 c -23.768,-23.76701 -23.768,-62.36001 0,-86.12701 v 0 c 23.767,-23.768 62.36,-23.768 86.127,0 l 234.268,234.26701 c 23.767,23.76799 23.767,62.36001 0,86.12801 z"/>
  <path id="obj3" d="m 1864.2896,1391.1486 v 0 c -33.613,0 -60.902,-27.289 -60.902,-60.902 V 998.94261 c 0,-33.61201 27.289,-60.90099 60.902,-60.90099 v 0 c 33.612,0 60.901,27.28899 60.901,60.90099 v 331.30399 c 0,33.613 -27.289,60.902 -60.901,60.902 z"/>
  <path id="obj4" d="m 1439.9294,1433.3474 v 0 c -23.768,-23.768 -23.768,-62.361 0,-86.128 l 234.267,-234.267 c 23.768,-23.768 62.36,-23.768 86.128,0 v 0 c 23.767,23.767 23.767,62.36 0,86.127 l -234.267,234.268 c -23.768,23.767 -62.36,23.767 -86.128,0 z" />
  <path id="obj5" d="m 1109.4105,1164.5956 v 0 c 0,-33.613 27.289,-60.902 60.902,-60.902 h 331.303 c 33.613,0 60.902,27.289 60.902,60.902 v 0 c 0,33.612 -27.289,60.901 -60.902,60.901 h -331.303 c -33.613,0 -60.902,-27.289 -60.902,-60.901 z" />
  <path id="obj6" d="m 1066.9594,740.23539 v 0 c 23.768,-23.76801 62.36,-23.76801 86.128,0 l 234.267,234.267 c 23.767,23.768 23.767,62.36001 0,86.12801 v 0 c -23.768,23.767 -62.36,23.767 -86.128,0 l -234.267,-234.26701 c -23.768,-23.768 -23.768,-62.36 0,-86.128 z" />
  <path id="obj7" d="m 1337.1886,412.76463 v 0 c 33.612,0 60.901,27.289 60.901,60.902 V 804.9696 c 0,33.613 -27.289,60.902 -60.901,60.902 v 0 c -33.613,0 -60.902,-27.289 -60.902,-60.902 V 473.66663 c 0,-33.613 27.289,-60.902 60.902,-60.902 z" />
</svg>
