<svg xmlns="http://www.w3.org/2000/svg" 
  xmlns:xlink="http://www.w3.org/1999/xlink" style="isolation:isolate" viewBox="0 0 3200 1800" width="3200" height="1800">
  <rect id="background" x="0" y="0" width="3200" height="1800" transform="matrix(1,0,0,1,0,0)" />
  <path id="obj0" d="M 1440.5414,687.04838 V 0 C -23.768,-23.768 -23.768,-62.36101 0,-86.12801 l 234.267,-234.267 c 23.768,-23.76801 62.36,-23.76801 86.128,0 v 0 c 23.767,23.767 23.767,62.36 0,86.127 l -234.267,234.26801 c -23.768,23.767 -62.36,23.767 -86.128,0 z" />
  <path id="obj1" d="M 1337.1886,865.87161 V 0 C -33.613,0 -60.902,-27.289 -60.902,-60.902 V 473.66564 c 0,-33.612 27.289,-60.901 60.902,-60.901 v 0 c 33.612,0 60.901,27.289 60.901,60.901 v 331.30397 c 0,33.613 -27.289,60.902 -60.901,60.902 z" />
  <path id="obj2" d="M 1387.3544,1060.6304 V 0 C -23.768,23.767 -62.36,23.767 -86.128,0 l -234.267,-234.268 c -23.768,-23.767 -23.768,-62.36 0,-86.127 v 0 c 23.767,-23.76802 62.36,-23.76802 86.127,0 l 234.268,234.267 c 23.767,23.768 23.767,62.36 0,86.128 z" />
  <path id="obj3" d="M 1562.5175,1164.5956 V 0 C 0,33.612 -27.289,60.901 -60.902,60.901 h -331.304 c -33.612,0 -60.901,-27.289 -60.901,-60.901 v 0 c 0,-33.613 27.289,-60.902 60.901,-60.902 h 331.304 c 33.613,0 60.902,27.289 60.902,60.902 z" />
  <path id="obj4" d="M 1760.3235,1112.9524 V 0 C 23.768,23.768 23.768,62.36 0,86.128 l -234.267,234.267 c -23.767,23.767 -62.36,23.767 -86.127,0 v 0 c -23.768,-23.768 -23.768,-62.36 0,-86.128 l 234.267,-234.267 c 23.767,-23.768 62.36,-23.768 86.127,0 z" />
  <path id="obj5" d="M 1864.2896,938.04162 V 0 C 33.612,0 60.901,27.289 60.901,60.902 v 331.30298 c 0,33.613 -27.289,60.902 -60.901,60.902 v 0 c -33.613,0 -60.902,-27.289 -60.902,-60.902 V 998.94362 c 0,-33.613 27.289,-60.902 60.902,-60.902 z" />
  <path id="obj6" d="M 1812.6464,740.2354 V 0 C 23.768,-23.76802 62.36,-23.76802 86.128,0 l 234.267,234.267 c 23.767,23.768 23.767,62.36 0,86.128 v 0 c -23.768,23.767 -62.36,23.767 -86.128,0 l -234.267,-234.267 c -23.768,-23.768 -23.768,-62.36 0,-86.128 z" />
  <path id="obj7" d="M 1637.7356,636.27063 V 0 C 0,-33.613 27.289,-60.902 60.902,-60.902 h 331.303 c 33.613,0 60.902,27.289 60.902,60.902 v 0 c 0,33.612 -27.289,60.901 -60.902,60.901 h -331.303 c -33.613,0 -60.902,-27.289 -60.902,-60.901 z" />
</svg>
